<mxfile host="app.diagrams.net" modified="2023-10-26T10:06:54.735Z" agent="Mozilla/5.0 (Windows NT 10.0; Win64; x64) AppleWebKit/537.36 (KHTML, like Gecko) Chrome/118.0.0.0 Safari/537.36" etag="fDZby1PnTfkValbq5ZHT" version="22.0.8" type="github">
  <diagram name="Halaman-1" id="J9sMmxcOtkHCiEfucb-f">
    <mxGraphModel dx="794" dy="466" grid="1" gridSize="10" guides="1" tooltips="1" connect="1" arrows="1" fold="1" page="1" pageScale="1" pageWidth="827" pageHeight="1169" math="0" shadow="0">
      <root>
        <mxCell id="0" />
        <mxCell id="1" parent="0" />
        <mxCell id="mbqM9cC1DBoMX9AeGr4C-16" value="" style="edgeStyle=orthogonalEdgeStyle;rounded=0;orthogonalLoop=1;jettySize=auto;html=1;" edge="1" parent="1" source="mbqM9cC1DBoMX9AeGr4C-1" target="mbqM9cC1DBoMX9AeGr4C-2">
          <mxGeometry relative="1" as="geometry" />
        </mxCell>
        <mxCell id="mbqM9cC1DBoMX9AeGr4C-1" value="mulai" style="ellipse;whiteSpace=wrap;html=1;" vertex="1" parent="1">
          <mxGeometry x="280" y="40" width="120" height="40" as="geometry" />
        </mxCell>
        <mxCell id="mbqM9cC1DBoMX9AeGr4C-17" value="" style="edgeStyle=orthogonalEdgeStyle;rounded=0;orthogonalLoop=1;jettySize=auto;html=1;" edge="1" parent="1" source="mbqM9cC1DBoMX9AeGr4C-2" target="mbqM9cC1DBoMX9AeGr4C-3">
          <mxGeometry relative="1" as="geometry" />
        </mxCell>
        <mxCell id="mbqM9cC1DBoMX9AeGr4C-2" value="program tebak angka" style="shape=parallelogram;perimeter=parallelogramPerimeter;whiteSpace=wrap;html=1;fixedSize=1;" vertex="1" parent="1">
          <mxGeometry x="240" y="120" width="200" height="40" as="geometry" />
        </mxCell>
        <mxCell id="mbqM9cC1DBoMX9AeGr4C-18" value="" style="edgeStyle=orthogonalEdgeStyle;rounded=0;orthogonalLoop=1;jettySize=auto;html=1;" edge="1" parent="1" source="mbqM9cC1DBoMX9AeGr4C-3" target="mbqM9cC1DBoMX9AeGr4C-4">
          <mxGeometry relative="1" as="geometry" />
        </mxCell>
        <mxCell id="mbqM9cC1DBoMX9AeGr4C-3" value="input angka tebakan" style="shape=parallelogram;perimeter=parallelogramPerimeter;whiteSpace=wrap;html=1;fixedSize=1;" vertex="1" parent="1">
          <mxGeometry x="240" y="200" width="200" height="40" as="geometry" />
        </mxCell>
        <mxCell id="mbqM9cC1DBoMX9AeGr4C-19" value="" style="edgeStyle=orthogonalEdgeStyle;rounded=0;orthogonalLoop=1;jettySize=auto;html=1;" edge="1" parent="1" source="mbqM9cC1DBoMX9AeGr4C-4" target="mbqM9cC1DBoMX9AeGr4C-5">
          <mxGeometry relative="1" as="geometry" />
        </mxCell>
        <mxCell id="mbqM9cC1DBoMX9AeGr4C-4" value="jawaban==rani()%&lt;br&gt;BATAS_ATAS_BATAS_BAWAH" style="rounded=0;whiteSpace=wrap;html=1;" vertex="1" parent="1">
          <mxGeometry x="240" y="280" width="200" height="40" as="geometry" />
        </mxCell>
        <mxCell id="mbqM9cC1DBoMX9AeGr4C-20" value="" style="edgeStyle=orthogonalEdgeStyle;rounded=0;orthogonalLoop=1;jettySize=auto;html=1;" edge="1" parent="1" source="mbqM9cC1DBoMX9AeGr4C-5" target="mbqM9cC1DBoMX9AeGr4C-6">
          <mxGeometry relative="1" as="geometry" />
        </mxCell>
        <mxCell id="mbqM9cC1DBoMX9AeGr4C-22" value="" style="edgeStyle=orthogonalEdgeStyle;rounded=0;orthogonalLoop=1;jettySize=auto;html=1;" edge="1" parent="1" source="mbqM9cC1DBoMX9AeGr4C-5" target="mbqM9cC1DBoMX9AeGr4C-14">
          <mxGeometry relative="1" as="geometry" />
        </mxCell>
        <mxCell id="mbqM9cC1DBoMX9AeGr4C-5" value="jawaban&lt;br&gt;==tebakan" style="rhombus;whiteSpace=wrap;html=1;" vertex="1" parent="1">
          <mxGeometry x="280" y="360" width="120" height="80" as="geometry" />
        </mxCell>
        <mxCell id="mbqM9cC1DBoMX9AeGr4C-21" value="" style="edgeStyle=orthogonalEdgeStyle;rounded=0;orthogonalLoop=1;jettySize=auto;html=1;" edge="1" parent="1" source="mbqM9cC1DBoMX9AeGr4C-6" target="mbqM9cC1DBoMX9AeGr4C-7">
          <mxGeometry relative="1" as="geometry" />
        </mxCell>
        <mxCell id="mbqM9cC1DBoMX9AeGr4C-6" value="tebakan anda terlalu besar" style="shape=parallelogram;perimeter=parallelogramPerimeter;whiteSpace=wrap;html=1;fixedSize=1;" vertex="1" parent="1">
          <mxGeometry x="240" y="480" width="200" height="40" as="geometry" />
        </mxCell>
        <mxCell id="mbqM9cC1DBoMX9AeGr4C-28" style="edgeStyle=orthogonalEdgeStyle;rounded=0;orthogonalLoop=1;jettySize=auto;html=1;entryX=0;entryY=0.5;entryDx=0;entryDy=0;" edge="1" parent="1" source="mbqM9cC1DBoMX9AeGr4C-7" target="mbqM9cC1DBoMX9AeGr4C-13">
          <mxGeometry relative="1" as="geometry">
            <Array as="points">
              <mxPoint x="690" y="615" />
              <mxPoint x="690" y="260" />
            </Array>
          </mxGeometry>
        </mxCell>
        <mxCell id="mbqM9cC1DBoMX9AeGr4C-30" value="" style="edgeStyle=orthogonalEdgeStyle;rounded=0;orthogonalLoop=1;jettySize=auto;html=1;" edge="1" parent="1" source="mbqM9cC1DBoMX9AeGr4C-7" target="mbqM9cC1DBoMX9AeGr4C-8">
          <mxGeometry relative="1" as="geometry" />
        </mxCell>
        <mxCell id="mbqM9cC1DBoMX9AeGr4C-7" value="jawaban&lt;br&gt;&amp;gt;tebakan" style="rhombus;whiteSpace=wrap;html=1;" vertex="1" parent="1">
          <mxGeometry x="290" y="575" width="100" height="80" as="geometry" />
        </mxCell>
        <mxCell id="mbqM9cC1DBoMX9AeGr4C-31" value="" style="edgeStyle=orthogonalEdgeStyle;rounded=0;orthogonalLoop=1;jettySize=auto;html=1;" edge="1" parent="1" source="mbqM9cC1DBoMX9AeGr4C-8" target="mbqM9cC1DBoMX9AeGr4C-10">
          <mxGeometry relative="1" as="geometry" />
        </mxCell>
        <mxCell id="mbqM9cC1DBoMX9AeGr4C-34" style="edgeStyle=orthogonalEdgeStyle;rounded=0;orthogonalLoop=1;jettySize=auto;html=1;" edge="1" parent="1" source="mbqM9cC1DBoMX9AeGr4C-8">
          <mxGeometry relative="1" as="geometry">
            <mxPoint x="90" y="299" as="targetPoint" />
          </mxGeometry>
        </mxCell>
        <mxCell id="mbqM9cC1DBoMX9AeGr4C-8" value="jawaban&lt;br&gt;&amp;lt;tebakan" style="rhombus;whiteSpace=wrap;html=1;" vertex="1" parent="1">
          <mxGeometry x="290" y="700" width="100" height="80" as="geometry" />
        </mxCell>
        <mxCell id="mbqM9cC1DBoMX9AeGr4C-9" value="==4" style="rounded=0;whiteSpace=wrap;html=1;" vertex="1" parent="1">
          <mxGeometry x="280" y="810" width="120" height="40" as="geometry" />
        </mxCell>
        <mxCell id="mbqM9cC1DBoMX9AeGr4C-32" value="" style="edgeStyle=orthogonalEdgeStyle;rounded=0;orthogonalLoop=1;jettySize=auto;html=1;" edge="1" parent="1" source="mbqM9cC1DBoMX9AeGr4C-10" target="mbqM9cC1DBoMX9AeGr4C-11">
          <mxGeometry relative="1" as="geometry" />
        </mxCell>
        <mxCell id="mbqM9cC1DBoMX9AeGr4C-10" value="jawaban&amp;nbsp;&lt;br&gt;benar" style="shape=parallelogram;perimeter=parallelogramPerimeter;whiteSpace=wrap;html=1;fixedSize=1;" vertex="1" parent="1">
          <mxGeometry x="270" y="890" width="120" height="40" as="geometry" />
        </mxCell>
        <mxCell id="mbqM9cC1DBoMX9AeGr4C-11" value="selesai" style="ellipse;whiteSpace=wrap;html=1;" vertex="1" parent="1">
          <mxGeometry x="270" y="1000" width="120" height="50" as="geometry" />
        </mxCell>
        <mxCell id="mbqM9cC1DBoMX9AeGr4C-35" style="edgeStyle=orthogonalEdgeStyle;rounded=0;orthogonalLoop=1;jettySize=auto;html=1;" edge="1" parent="1" source="mbqM9cC1DBoMX9AeGr4C-12">
          <mxGeometry relative="1" as="geometry">
            <mxPoint x="330" y="265" as="targetPoint" />
          </mxGeometry>
        </mxCell>
        <mxCell id="mbqM9cC1DBoMX9AeGr4C-12" value="tebakan anda benar" style="shape=parallelogram;perimeter=parallelogramPerimeter;whiteSpace=wrap;html=1;fixedSize=1;" vertex="1" parent="1">
          <mxGeometry x="20" y="240" width="140" height="50" as="geometry" />
        </mxCell>
        <mxCell id="mbqM9cC1DBoMX9AeGr4C-36" style="edgeStyle=orthogonalEdgeStyle;rounded=0;orthogonalLoop=1;jettySize=auto;html=1;" edge="1" parent="1" source="mbqM9cC1DBoMX9AeGr4C-13">
          <mxGeometry relative="1" as="geometry">
            <mxPoint x="350" y="260" as="targetPoint" />
          </mxGeometry>
        </mxCell>
        <mxCell id="mbqM9cC1DBoMX9AeGr4C-13" value="tebakan anda &lt;br&gt;terlalu kecil" style="shape=parallelogram;perimeter=parallelogramPerimeter;whiteSpace=wrap;html=1;fixedSize=1;" vertex="1" parent="1">
          <mxGeometry x="630" y="240" width="140" height="40" as="geometry" />
        </mxCell>
        <mxCell id="mbqM9cC1DBoMX9AeGr4C-14" value="tebakan anda lalah" style="shape=parallelogram;perimeter=parallelogramPerimeter;whiteSpace=wrap;html=1;fixedSize=1;" vertex="1" parent="1">
          <mxGeometry x="470" y="380" width="140" height="40" as="geometry" />
        </mxCell>
        <mxCell id="mbqM9cC1DBoMX9AeGr4C-33" value="salah" style="text;html=1;align=center;verticalAlign=middle;resizable=0;points=[];autosize=1;strokeColor=none;fillColor=none;" vertex="1" parent="1">
          <mxGeometry x="355" y="778" width="50" height="30" as="geometry" />
        </mxCell>
        <mxCell id="mbqM9cC1DBoMX9AeGr4C-37" value="benar" style="text;html=1;align=center;verticalAlign=middle;resizable=0;points=[];autosize=1;strokeColor=none;fillColor=none;" vertex="1" parent="1">
          <mxGeometry x="195" y="698" width="50" height="30" as="geometry" />
        </mxCell>
        <mxCell id="mbqM9cC1DBoMX9AeGr4C-38" value="salah" style="text;html=1;align=center;verticalAlign=middle;resizable=0;points=[];autosize=1;strokeColor=none;fillColor=none;" vertex="1" parent="1">
          <mxGeometry x="405" y="368" width="50" height="30" as="geometry" />
        </mxCell>
        <mxCell id="mbqM9cC1DBoMX9AeGr4C-39" value="benar" style="text;html=1;align=center;verticalAlign=middle;resizable=0;points=[];autosize=1;strokeColor=none;fillColor=none;" vertex="1" parent="1">
          <mxGeometry x="415" y="588" width="50" height="30" as="geometry" />
        </mxCell>
        <mxCell id="mbqM9cC1DBoMX9AeGr4C-40" value="salah" style="text;html=1;align=center;verticalAlign=middle;resizable=0;points=[];autosize=1;strokeColor=none;fillColor=none;" vertex="1" parent="1">
          <mxGeometry x="355" y="448" width="50" height="30" as="geometry" />
        </mxCell>
      </root>
    </mxGraphModel>
  </diagram>
</mxfile>
